<svg id="svg" version="1.1" xmlns="http://www.w3.org/2000/svg" xmlns:xlink="http://www.w3.org/1999/xlink" width="400" height="450" viewBox="0, 0, 400,450"><g id="svgg"><path id="path0" d="" stroke="none" fill="#041cc4" fill-rule="evenodd"></path><path id="path1" d="M64.778 85.100 L 63.400 86.600 64.900 85.222 C 66.296 83.938,66.584 83.600,66.278 83.600 C 66.212 83.600,65.537 84.275,64.778 85.100 M302.200 89.678 C 302.640 89.927,303.132 90.327,303.294 90.566 C 303.496 90.865,303.590 90.849,303.594 90.514 C 303.597 90.247,303.252 89.842,302.826 89.614 C 301.774 89.051,301.197 89.109,302.200 89.678 M42.895 115.866 C 42.618 115.978,42.203 116.459,41.973 116.935 C 41.616 117.676,41.633 117.714,42.096 117.200 C 42.393 116.870,42.889 116.375,43.198 116.100 C 43.787 115.576,43.729 115.531,42.895 115.866 M217.000 251.399 C 217.440 251.715,218.025 252.166,218.300 252.402 C 218.575 252.638,218.800 252.665,218.800 252.462 C 218.800 252.065,217.035 250.792,216.514 250.813 C 216.341 250.820,216.560 251.084,217.000 251.399 M66.800 321.725 C 66.800 321.794,67.385 322.379,68.100 323.025 L 69.400 324.200 68.225 322.900 C 67.130 321.688,66.800 321.416,66.800 321.725 M240.600 329.014 C 239.600 329.496,239.566 329.551,240.400 329.348 C 241.533 329.071,242.807 328.421,242.200 328.430 C 241.980 328.433,241.260 328.696,240.600 329.014 M335.700 376.276 C 336.085 376.376,336.715 376.376,337.100 376.276 C 337.485 376.175,337.170 376.093,336.400 376.093 C 335.630 376.093,335.315 376.175,335.700 376.276 " stroke="none" fill="#0414c4" fill-rule="evenodd"></path><path id="path2" d="M197.200 20.375 C 197.200 20.635,197.026 20.740,196.813 20.608 C 196.600 20.476,195.655 20.749,194.713 21.213 C 193.771 21.677,192.474 22.129,191.830 22.218 C 191.187 22.307,190.476 22.564,190.250 22.790 C 190.025 23.015,189.516 23.200,189.120 23.200 C 188.724 23.200,188.400 23.341,188.400 23.513 C 188.400 23.685,187.979 23.860,187.465 23.903 C 186.950 23.945,186.005 24.254,185.365 24.588 C 184.724 24.922,183.973 25.196,183.695 25.198 C 183.417 25.199,182.877 25.359,182.495 25.553 C 181.855 25.879,181.146 26.179,178.700 27.161 C 174.466 28.862,172.400 29.830,172.400 30.113 C 172.400 30.297,172.245 30.352,172.056 30.235 C 171.583 29.942,167.600 31.969,167.600 32.502 C 167.600 32.739,167.488 32.821,167.350 32.684 C 167.010 32.343,164.000 33.913,164.000 34.432 C 164.000 34.660,163.820 34.736,163.600 34.600 C 163.380 34.464,163.200 34.573,163.200 34.843 C 163.200 35.113,163.093 35.226,162.962 35.095 C 162.831 34.964,161.560 35.654,160.137 36.629 C 158.714 37.603,157.516 38.400,157.475 38.400 C 157.350 38.400,157.551 35.509,157.807 33.624 C 158.054 31.811,157.757 29.709,157.317 30.149 C 157.183 30.283,156.832 30.193,156.537 29.948 C 156.142 29.620,155.858 29.620,155.463 29.948 C 155.168 30.193,154.817 30.284,154.684 30.150 C 154.550 30.017,152.947 31.350,151.120 33.113 C 149.294 34.876,146.868 37.130,145.729 38.121 C 144.590 39.113,143.735 40.032,143.829 40.162 C 143.923 40.293,143.894 40.324,143.765 40.231 C 143.635 40.138,142.632 40.592,141.535 41.238 C 140.439 41.885,139.150 42.415,138.671 42.417 C 137.455 42.420,136.055 42.189,135.809 41.943 C 135.441 41.575,129.812 41.963,129.678 42.365 C 129.607 42.580,129.291 42.656,128.978 42.536 C 128.664 42.416,127.765 42.696,126.981 43.158 C 126.196 43.621,125.384 44.000,125.176 44.000 C 124.484 44.000,121.178 46.245,121.458 46.525 C 121.610 46.676,121.478 46.803,121.167 46.806 C 120.486 46.814,118.000 48.937,118.000 49.510 C 118.000 49.732,117.730 50.018,117.399 50.145 C 116.524 50.481,113.754 54.930,112.992 57.225 C 112.631 58.311,112.125 59.214,111.868 59.231 C 111.611 59.247,111.040 59.343,110.600 59.443 C 109.818 59.621,106.397 59.730,106.000 59.590 C 104.777 59.157,95.833 58.930,93.930 59.284 C 92.045 59.635,88.427 62.463,83.056 67.783 C 81.733 69.093,80.804 69.903,80.992 69.583 C 81.179 69.262,80.178 70.122,78.766 71.494 C 77.355 72.865,75.660 74.439,75.000 74.992 C 74.340 75.545,73.800 76.223,73.800 76.499 C 73.800 76.774,73.604 77.000,73.365 77.000 C 72.962 77.000,56.403 93.476,54.590 95.681 C 53.213 97.355,52.325 98.858,52.569 99.102 C 52.697 99.230,52.548 99.620,52.238 99.968 C 51.928 100.315,51.273 101.950,50.782 103.600 C 49.587 107.622,47.137 111.606,43.816 114.927 C 43.462 115.281,43.182 115.671,43.194 115.793 C 43.207 115.916,42.826 116.417,42.350 116.908 C 41.873 117.398,41.626 117.530,41.803 117.200 C 41.979 116.870,41.758 116.960,41.313 117.400 C 40.867 117.840,40.581 118.336,40.677 118.503 C 40.772 118.669,40.540 118.925,40.159 119.071 C 39.779 119.217,38.339 120.431,36.958 121.768 C 33.911 124.721,30.044 128.151,29.557 128.333 C 29.361 128.407,29.200 128.732,29.200 129.057 C 29.200 129.382,29.020 129.536,28.800 129.400 C 28.580 129.264,28.400 129.433,28.400 129.776 C 28.400 130.119,28.247 130.355,28.061 130.300 C 27.633 130.174,24.200 133.564,24.200 134.113 C 24.200 134.336,23.905 134.628,23.544 134.760 C 22.715 135.063,17.600 141.196,17.600 141.886 C 17.600 142.169,17.409 142.400,17.176 142.400 C 16.943 142.400,16.864 142.580,17.000 142.800 C 17.136 143.020,17.099 143.200,16.918 143.200 C 16.493 143.200,14.569 146.352,14.700 146.833 C 14.755 147.035,14.620 147.200,14.400 147.200 C 14.180 147.200,14.000 147.372,14.000 147.582 C 14.000 147.792,13.544 148.637,12.986 149.458 C 12.429 150.280,12.063 151.188,12.174 151.476 C 12.284 151.764,12.201 152.000,11.987 152.000 C 11.774 152.000,11.637 152.135,11.682 152.300 C 11.727 152.465,11.456 153.180,11.078 153.888 C 10.701 154.596,10.422 155.316,10.459 155.488 C 10.526 155.796,10.253 156.641,9.584 158.200 C 8.384 160.993,6.278 169.080,6.611 169.617 C 6.741 169.828,6.680 170.000,6.475 170.000 C 6.157 170.000,5.695 172.053,5.351 175.000 C 5.299 175.440,5.061 176.880,4.822 178.200 C 4.246 181.375,4.045 182.642,3.775 184.800 C 3.478 187.170,3.293 188.346,2.987 189.800 C 2.460 192.300,2.142 194.709,2.215 195.638 C 2.256 196.167,2.150 196.691,1.979 196.803 C 1.807 196.915,1.556 197.995,1.421 199.203 C 1.286 200.411,0.995 202.480,0.774 203.800 C 0.107 207.791,0.021 209.200,0.446 209.200 C 0.666 209.200,0.735 209.381,0.598 209.603 C 0.461 209.824,0.630 210.113,0.972 210.245 C 1.315 210.376,1.496 210.645,1.374 210.842 C 1.252 211.039,1.373 211.200,1.643 211.200 C 1.913 211.200,2.019 211.315,1.878 211.455 C 1.738 211.595,1.991 212.225,2.439 212.855 C 2.888 213.485,3.162 214.000,3.050 214.000 C 2.937 214.000,3.888 216.115,5.163 218.700 C 6.438 221.285,7.732 223.985,8.038 224.700 C 8.345 225.415,8.742 226.000,8.921 226.000 C 9.101 226.000,9.145 226.165,9.021 226.367 C 8.814 226.700,10.666 231.529,11.181 232.000 C 11.302 232.110,11.454 232.560,11.519 233.000 C 11.666 233.992,12.920 237.728,13.197 238.000 C 13.309 238.110,13.449 238.642,13.510 239.183 C 13.570 239.723,13.784 240.266,13.984 240.390 C 14.184 240.514,14.439 241.378,14.552 242.310 C 14.664 243.243,14.893 244.226,15.059 244.496 C 15.226 244.765,15.388 245.259,15.420 245.593 C 15.452 245.927,15.763 247.640,16.111 249.400 C 16.458 251.160,16.864 253.320,17.012 254.200 C 17.160 255.080,17.357 256.209,17.450 256.709 C 17.837 258.794,16.109 260.435,14.034 259.953 C 13.245 259.769,12.460 259.615,12.289 259.610 C 11.893 259.597,12.068 270.795,12.467 271.042 C 12.631 271.143,12.664 271.490,12.540 271.813 C 12.416 272.136,12.451 272.715,12.619 273.100 C 12.786 273.485,12.958 273.980,13.000 274.200 C 13.043 274.420,13.128 274.735,13.189 274.900 C 13.312 275.233,13.330 275.294,13.787 277.000 C 13.964 277.660,14.342 278.650,14.628 279.200 C 14.914 279.750,15.249 280.682,15.374 281.272 C 15.499 281.862,15.862 282.605,16.182 282.924 C 16.501 283.244,16.677 283.589,16.574 283.693 C 16.470 283.796,16.658 284.403,16.990 285.040 C 17.323 285.678,17.596 286.341,17.598 286.514 C 17.599 286.687,17.908 287.299,18.285 287.874 C 18.662 288.449,19.008 289.177,19.055 289.491 C 19.101 289.805,19.399 290.633,19.718 291.331 C 20.037 292.029,20.625 293.365,21.026 294.300 C 21.426 295.235,21.910 296.000,22.101 296.000 C 22.291 296.000,22.340 296.173,22.210 296.384 C 22.080 296.595,22.155 297.090,22.377 297.484 C 23.315 299.148,26.953 307.055,27.065 307.676 C 27.132 308.047,27.530 309.037,27.948 309.876 C 28.366 310.714,28.953 311.985,29.252 312.700 C 29.551 313.415,29.942 314.000,30.121 314.000 C 30.301 314.000,30.340 314.173,30.210 314.384 C 30.004 314.718,30.619 316.219,31.200 316.800 C 31.310 316.910,31.452 317.245,31.515 317.544 C 31.746 318.640,34.184 324.204,34.490 324.334 C 34.663 324.408,34.702 324.634,34.577 324.837 C 34.452 325.040,34.632 325.489,34.978 325.835 C 35.324 326.181,35.493 326.650,35.352 326.877 C 35.212 327.104,35.307 327.419,35.563 327.577 C 35.819 327.735,36.121 328.378,36.235 329.004 C 36.349 329.631,36.562 330.337,36.710 330.572 C 36.857 330.807,37.020 331.180,37.073 331.400 C 37.231 332.066,38.684 336.120,39.224 337.400 C 39.502 338.060,39.700 338.735,39.665 338.900 C 39.629 339.065,39.774 339.200,39.987 339.200 C 40.201 339.200,40.271 339.470,40.145 339.800 C 40.018 340.130,40.124 340.400,40.381 340.400 C 40.637 340.400,40.750 340.558,40.631 340.750 C 40.366 341.178,41.583 344.904,42.098 345.245 C 42.302 345.379,42.453 345.604,42.434 345.745 C 42.302 346.729,42.461 347.209,42.841 346.975 C 43.553 346.535,47.162 348.445,47.746 349.571 C 48.039 350.137,48.567 351.140,48.919 351.800 C 49.867 353.577,50.328 355.082,50.450 356.800 C 50.554 358.254,51.331 361.419,51.632 361.612 C 51.813 361.728,52.032 362.465,52.119 363.250 C 52.205 364.034,52.434 364.929,52.626 365.238 C 52.819 365.547,53.023 366.096,53.080 366.458 C 53.282 367.757,55.964 373.200,56.401 373.200 C 56.646 373.200,56.753 373.353,56.637 373.540 C 56.447 373.847,57.043 374.799,58.800 376.999 C 60.522 379.155,65.377 383.629,66.225 383.842 C 66.761 383.977,67.200 384.258,67.200 384.467 C 67.200 384.676,67.380 384.736,67.600 384.600 C 67.820 384.464,68.000 384.522,68.000 384.728 C 68.000 385.097,69.777 385.977,70.851 386.139 C 71.153 386.185,71.625 386.363,71.900 386.535 C 72.175 386.707,72.400 386.725,72.400 386.575 C 72.400 386.425,72.669 386.526,72.999 386.799 C 73.403 387.134,75.708 387.345,80.099 387.446 C 85.684 387.576,87.774 387.712,91.200 388.169 C 91.530 388.213,92.193 388.463,92.674 388.725 C 93.154 388.986,93.775 389.200,94.052 389.200 C 94.681 389.200,97.403 391.029,99.000 392.524 C 100.179 393.627,102.656 395.106,103.355 395.123 C 103.551 395.128,103.821 395.296,103.955 395.497 C 104.347 396.083,106.863 397.208,107.249 396.970 C 107.442 396.851,107.600 396.921,107.600 397.126 C 107.600 397.492,109.708 398.163,110.700 398.114 C 110.975 398.100,111.200 398.224,111.200 398.390 C 111.200 398.829,116.582 399.600,119.600 399.592 C 122.659 399.585,123.077 399.656,124.400 400.404 C 124.950 400.715,125.535 400.932,125.700 400.885 C 125.865 400.838,126.000 400.951,126.000 401.136 C 126.000 401.445,127.832 402.505,128.480 402.571 C 128.634 402.587,128.985 402.825,129.260 403.100 C 129.535 403.375,130.084 403.600,130.480 403.600 C 130.876 403.600,131.200 403.810,131.200 404.067 C 131.200 404.323,131.318 404.415,131.463 404.270 C 131.608 404.125,131.923 404.165,132.163 404.358 C 133.293 405.265,138.709 407.958,138.940 407.727 C 139.083 407.584,139.200 407.673,139.200 407.926 C 139.200 408.178,140.325 408.933,141.700 409.603 C 143.075 410.273,144.920 411.249,145.800 411.771 C 146.680 412.294,147.535 412.639,147.700 412.537 C 147.865 412.436,148.000 412.531,148.000 412.749 C 148.000 412.968,148.397 413.272,148.881 413.426 C 149.366 413.580,150.009 413.952,150.310 414.253 C 150.611 414.554,151.114 414.800,151.429 414.800 C 151.743 414.800,152.000 414.954,152.000 415.143 C 152.000 416.604,157.527 418.815,158.571 417.771 C 158.917 417.426,159.206 417.291,159.213 417.471 C 159.220 417.652,159.474 417.473,159.777 417.072 C 160.312 416.367,161.156 417.441,160.885 418.483 C 159.956 422.059,160.483 422.922,163.258 422.366 C 164.436 422.131,166.300 421.873,167.400 421.794 C 168.500 421.715,170.390 421.522,171.600 421.365 C 175.126 420.909,175.977 420.835,180.200 420.621 C 182.400 420.510,185.100 420.318,186.200 420.195 C 188.621 419.925,199.021 419.922,201.800 420.191 C 202.900 420.297,205.150 420.493,206.800 420.626 C 210.597 420.933,211.217 421.011,212.200 421.310 C 212.640 421.444,213.720 421.657,214.600 421.784 C 215.480 421.911,217.151 422.288,218.314 422.623 C 219.476 422.957,220.601 423.123,220.814 422.992 C 221.026 422.860,221.200 422.922,221.200 423.130 C 221.200 423.860,223.390 423.914,225.185 423.228 C 226.636 422.674,233.400 422.321,233.400 422.800 C 233.400 422.866,234.628 423.172,235.600 423.348 C 236.225 423.461,237.235 423.824,238.600 424.425 C 239.040 424.619,239.670 424.827,240.000 424.889 C 240.330 424.950,240.690 425.105,240.800 425.234 C 241.269 425.784,246.401 428.439,246.406 428.134 C 246.409 427.950,246.544 427.980,246.706 428.200 C 247.582 429.392,252.800 430.550,252.800 429.553 C 252.800 429.333,252.969 429.257,253.175 429.385 C 253.946 429.861,254.324 428.285,253.797 426.793 L 253.282 425.331 254.741 424.809 C 255.543 424.522,256.295 424.142,256.410 423.965 C 256.526 423.788,257.192 423.542,257.890 423.419 C 258.588 423.296,259.640 423.013,260.228 422.789 C 261.183 422.426,263.329 422.001,264.700 421.902 C 264.975 421.883,265.200 421.741,265.200 421.588 C 265.200 421.435,265.650 421.359,266.200 421.420 C 266.750 421.480,267.201 421.410,267.203 421.265 C 267.204 421.119,268.218 420.950,269.456 420.889 C 271.896 420.769,272.126 420.940,276.600 426.208 C 277.260 426.985,278.160 427.690,278.600 427.776 C 279.040 427.861,279.715 428.056,280.100 428.208 C 280.737 428.460,280.800 428.146,280.800 424.732 C 280.800 421.982,280.966 420.740,281.423 420.089 C 281.765 419.600,281.900 419.193,281.723 419.184 C 281.545 419.176,282.030 418.879,282.800 418.525 C 283.858 418.039,285.312 417.897,288.747 417.943 L 293.295 418.005 293.007 417.102 C 292.284 414.837,293.082 408.400,294.085 408.400 C 294.466 408.400,298.459 404.398,301.600 400.867 C 304.851 397.213,307.578 394.404,307.837 394.441 C 307.963 394.459,308.546 394.048,309.133 393.528 C 311.833 391.134,314.800 390.249,314.800 391.838 C 314.800 391.953,314.575 391.917,314.300 391.759 C 314.025 391.600,315.030 392.689,316.534 394.180 C 318.037 395.670,319.072 396.768,318.834 396.621 C 318.595 396.473,318.400 396.447,318.400 396.562 C 318.400 396.678,318.749 396.959,319.175 397.187 C 319.897 397.573,319.941 397.478,319.805 395.811 C 319.637 393.755,318.801 391.200,318.296 391.200 C 318.107 391.200,318.050 391.042,318.170 390.849 C 318.401 390.475,315.767 386.800,315.268 386.800 C 314.872 386.800,313.600 384.616,313.600 383.936 C 313.600 383.638,314.275 383.184,315.100 382.926 C 315.925 382.668,317.140 382.239,317.800 381.972 C 321.745 380.377,326.164 380.592,327.856 382.462 C 328.553 383.233,329.200 383.431,329.200 382.875 C 329.200 382.697,328.833 382.157,328.384 381.675 C 327.936 381.194,327.688 380.800,327.833 380.800 C 327.979 380.800,327.917 380.575,327.695 380.300 C 327.022 379.465,327.868 378.048,329.487 377.300 C 330.319 376.915,331.090 376.510,331.200 376.400 C 331.310 376.290,332.210 376.185,333.200 376.167 C 339.029 376.060,340.328 375.790,341.657 374.408 C 342.531 373.500,343.715 371.182,343.444 370.910 C 343.325 370.792,343.382 370.403,343.569 370.047 C 343.756 369.691,344.020 368.599,344.154 367.620 C 344.326 366.369,344.779 365.447,345.678 364.520 C 346.381 363.794,346.866 363.200,346.755 363.200 C 346.643 363.200,347.501 362.173,348.660 360.917 C 349.819 359.662,350.707 358.573,350.632 358.499 C 350.558 358.425,350.971 357.868,351.549 357.262 C 353.356 355.367,355.380 352.746,355.882 351.651 C 356.147 351.073,356.378 350.780,356.394 351.000 C 356.422 351.367,357.358 350.057,357.395 349.600 C 357.404 349.490,357.807 348.950,358.291 348.400 C 358.775 347.850,359.201 347.220,359.239 347.000 C 359.277 346.780,359.646 346.363,360.060 346.073 C 360.475 345.783,360.719 345.393,360.604 345.207 C 360.489 345.021,360.531 344.808,360.698 344.734 C 361.302 344.466,363.200 341.636,363.200 341.003 C 363.200 340.645,363.361 340.452,363.558 340.574 C 363.754 340.695,364.212 340.121,364.574 339.297 C 365.440 337.332,366.438 335.623,367.283 334.663 C 368.068 333.769,369.788 330.346,369.676 329.900 C 369.634 329.735,369.791 329.600,370.024 329.600 C 370.257 329.600,370.336 329.420,370.200 329.200 C 370.064 328.980,370.133 328.800,370.353 328.800 C 370.753 328.800,375.200 320.312,375.200 319.548 C 375.200 319.325,375.480 318.863,375.823 318.520 C 376.166 318.177,376.351 317.650,376.236 317.348 C 376.120 317.047,376.210 316.800,376.436 316.800 C 376.662 316.800,376.736 316.620,376.600 316.400 C 376.464 316.180,376.499 316.000,376.679 316.000 C 376.995 316.000,378.816 312.359,378.954 311.450 C 378.992 311.203,379.163 310.775,379.335 310.500 C 379.507 310.225,379.534 310.000,379.395 310.000 C 379.256 310.000,379.427 309.715,379.775 309.368 C 380.123 309.020,380.305 308.570,380.180 308.368 C 380.055 308.165,380.163 308.000,380.419 308.000 C 380.676 308.000,380.786 307.742,380.665 307.426 C 380.544 307.110,380.598 306.795,380.786 306.726 C 380.973 306.657,381.188 306.240,381.263 305.800 C 381.339 305.360,381.530 304.902,381.690 304.783 C 381.849 304.663,382.038 304.186,382.109 303.722 C 382.179 303.258,382.421 302.635,382.645 302.339 C 383.286 301.493,384.416 298.283,384.163 298.030 C 384.037 297.904,383.704 298.116,383.423 298.501 C 383.142 298.885,382.771 299.200,382.599 299.200 C 382.427 299.200,381.793 299.695,381.191 300.300 C 380.588 300.905,379.578 301.790,378.947 302.266 C 377.189 303.593,376.000 304.669,376.000 304.932 C 376.000 305.064,375.235 305.914,374.300 306.822 C 373.365 307.731,372.870 308.354,373.200 308.207 C 373.530 308.061,373.440 308.237,373.000 308.599 C 372.560 308.960,372.245 309.424,372.300 309.628 C 372.355 309.833,372.216 310.000,371.990 310.000 C 371.765 310.000,371.409 310.450,371.200 311.000 C 370.991 311.550,370.647 312.000,370.435 312.000 C 370.223 312.000,369.552 312.914,368.944 314.031 C 367.352 316.956,365.089 317.932,363.029 316.582 L 362.087 315.965 360.846 319.682 L 359.605 323.400 359.777 320.400 C 359.872 318.750,359.856 317.625,359.741 317.900 C 359.627 318.175,359.318 318.400,359.055 318.400 C 358.792 318.400,358.317 318.760,358.000 319.200 C 357.683 319.640,357.215 320.000,356.961 320.000 C 356.706 320.000,356.254 320.294,355.955 320.654 C 355.656 321.014,354.779 321.720,354.006 322.223 C 353.233 322.725,352.077 323.601,351.438 324.168 C 350.799 324.736,350.168 325.200,350.037 325.200 C 349.906 325.200,348.952 325.988,347.917 326.952 C 346.883 327.915,345.980 328.647,345.911 328.578 C 345.842 328.509,344.672 329.318,343.310 330.376 C 341.948 331.435,340.946 332.413,341.084 332.550 C 341.221 332.688,341.025 332.800,340.648 332.800 C 340.272 332.800,339.514 333.249,338.965 333.798 C 338.416 334.347,337.480 335.052,336.884 335.364 C 336.288 335.677,335.440 336.262,335.000 336.666 C 334.560 337.070,333.539 337.844,332.730 338.387 C 331.922 338.930,331.347 339.515,331.454 339.687 C 331.560 339.859,331.375 340.000,331.042 340.000 C 330.709 340.000,329.986 340.450,329.436 341.000 C 328.886 341.550,328.248 342.000,328.018 342.000 C 327.788 342.000,327.600 342.180,327.600 342.400 C 327.600 342.620,327.412 342.800,327.183 342.800 C 326.840 342.800,322.695 345.681,322.000 346.403 C 321.890 346.517,320.765 347.313,319.500 348.172 C 318.235 349.030,317.200 349.883,317.200 350.066 C 317.200 350.250,317.001 350.400,316.758 350.400 C 316.262 350.400,313.271 352.610,312.500 353.546 C 312.225 353.880,312.000 354.020,312.000 353.857 C 312.000 353.695,311.190 354.119,310.200 354.800 C 309.210 355.481,308.400 356.240,308.400 356.486 C 308.400 356.732,308.287 356.820,308.149 356.682 C 307.829 356.362,304.400 358.704,304.400 359.243 C 304.400 359.465,304.239 359.548,304.042 359.426 C 303.845 359.304,303.571 359.499,303.432 359.860 C 303.294 360.220,303.072 360.405,302.938 360.272 C 302.681 360.015,295.208 364.991,294.706 365.754 C 294.538 366.009,294.404 366.029,294.393 365.800 C 294.383 365.580,294.127 365.727,293.824 366.127 C 293.521 366.526,293.167 366.842,293.038 366.829 C 292.571 366.782,288.800 369.278,288.800 369.634 C 288.800 369.835,288.665 369.979,288.500 369.953 C 287.735 369.832,287.173 370.033,287.374 370.357 C 287.495 370.554,287.160 370.824,286.628 370.957 C 286.097 371.091,285.153 371.625,284.531 372.145 C 283.280 373.191,282.220 373.621,279.500 374.187 C 278.827 374.327,278.400 374.245,278.400 373.974 C 278.400 373.732,278.175 373.610,277.900 373.704 C 277.340 373.895,275.861 372.378,274.959 370.685 L 274.364 369.571 273.199 370.400 C 272.559 370.857,271.686 371.673,271.260 372.215 C 270.834 372.757,270.342 373.200,270.168 373.200 C 269.994 373.200,269.467 373.562,268.996 374.004 C 268.116 374.830,265.279 374.442,265.819 373.569 C 265.939 373.375,265.855 372.876,265.633 372.461 C 265.410 372.045,265.345 371.588,265.489 371.444 C 266.651 370.283,265.798 369.799,262.525 369.765 C 260.696 369.746,259.200 369.891,259.200 370.088 C 259.200 370.286,259.029 370.342,258.820 370.212 C 258.611 370.083,258.245 370.343,258.006 370.789 C 257.767 371.235,257.696 371.600,257.848 371.600 C 258.000 371.600,257.808 371.949,257.423 372.375 C 257.037 372.801,256.828 373.322,256.959 373.533 C 257.089 373.744,256.940 374.014,256.628 374.134 C 256.089 374.341,254.800 372.876,254.800 372.057 C 254.800 371.450,253.690 371.209,253.269 371.724 C 253.054 371.986,252.749 373.423,252.591 374.918 C 252.281 377.840,251.846 378.235,251.650 375.773 C 251.614 375.319,251.351 375.217,250.700 375.403 C 249.655 375.702,247.535 377.972,247.840 378.465 C 247.954 378.649,247.846 378.800,247.600 378.800 C 247.354 378.800,247.281 379.008,247.438 379.262 C 247.621 379.557,247.547 379.615,247.235 379.422 C 246.967 379.256,246.843 379.024,246.961 378.906 C 247.222 378.644,244.011 374.000,243.569 374.000 C 243.396 374.000,243.143 373.685,243.007 373.300 C 242.871 372.915,242.183 372.158,241.480 371.618 C 240.236 370.662,240.222 370.661,241.000 371.559 C 241.440 372.068,241.755 372.555,241.700 372.642 C 241.645 372.729,241.614 372.845,241.631 372.900 C 241.648 372.955,241.744 373.810,241.845 374.800 C 241.945 375.790,242.106 376.825,242.201 377.100 C 242.444 377.800,241.402 377.726,240.800 377.000 C 240.015 376.054,239.603 376.294,239.756 377.608 C 239.834 378.273,239.745 378.911,239.558 379.026 C 239.372 379.141,239.283 379.775,239.359 380.435 C 239.481 381.483,239.302 381.736,237.950 382.426 C 237.097 382.861,236.400 383.499,236.400 383.846 C 236.400 384.192,236.062 384.563,235.650 384.671 C 235.237 384.779,234.671 385.294,234.392 385.815 C 234.113 386.336,233.776 386.732,233.643 386.696 C 233.509 386.660,233.023 386.840,232.561 387.096 C 232.100 387.353,230.570 387.652,229.161 387.762 C 224.878 388.094,221.852 388.418,220.800 388.656 C 220.250 388.780,219.080 388.946,218.200 389.025 C 216.773 389.154,215.369 389.397,214.800 389.616 C 214.690 389.658,214.420 389.734,214.200 389.785 C 213.980 389.836,213.710 389.917,213.600 389.965 C 213.490 390.012,212.860 390.118,212.200 390.200 C 210.959 390.353,210.502 390.448,207.798 391.105 C 205.736 391.606,204.471 391.639,204.199 391.198 C 204.079 391.004,203.221 390.734,202.291 390.598 C 200.020 390.264,199.505 390.160,198.800 389.897 C 197.354 389.356,194.659 388.879,194.153 389.073 C 193.849 389.190,193.600 389.065,193.600 388.796 C 193.600 388.490,193.226 388.378,192.600 388.498 C 192.050 388.603,191.600 388.513,191.600 388.298 C 191.600 388.083,191.156 387.992,190.614 388.095 C 190.072 388.199,189.577 388.130,189.514 387.943 C 189.451 387.755,188.497 387.548,187.393 387.482 C 186.290 387.417,185.210 387.255,184.993 387.124 C 184.530 386.844,181.118 386.294,179.400 386.223 C 178.740 386.196,178.020 386.065,177.800 385.931 C 177.580 385.798,176.320 385.571,175.000 385.428 C 171.275 385.022,169.101 384.758,167.879 384.561 C 166.820 384.391,163.433 384.125,158.324 383.809 C 157.072 383.732,155.722 383.570,155.324 383.450 C 154.926 383.329,153.520 383.137,152.200 383.023 C 150.880 382.909,149.023 382.628,148.074 382.400 C 147.125 382.171,146.180 382.089,145.974 382.216 C 145.768 382.343,145.600 382.299,145.600 382.118 C 145.600 381.793,142.057 380.745,140.700 380.668 C 140.315 380.646,140.000 380.516,140.000 380.378 C 140.000 380.240,139.235 379.904,138.300 379.631 C 137.365 379.359,134.220 377.971,131.310 376.547 C 128.401 375.124,125.926 373.968,125.810 373.979 C 125.695 373.991,125.233 373.633,124.785 373.185 C 124.337 372.737,123.770 372.495,123.524 372.647 C 123.262 372.809,123.188 372.744,123.344 372.491 C 123.493 372.249,123.223 371.934,122.732 371.779 C 121.882 371.509,121.891 371.480,123.026 370.904 C 125.206 369.798,126.663 367.794,126.738 365.800 C 126.812 363.860,126.481 363.537,125.701 364.787 C 124.912 366.050,123.083 366.864,118.800 367.858 C 117.101 368.252,115.001 368.220,114.987 367.800 C 114.980 367.580,114.142 366.590,113.126 365.600 C 106.920 359.557,104.854 357.680,104.640 357.893 C 104.508 358.025,104.400 357.823,104.400 357.443 C 104.400 357.063,104.220 356.864,104.000 357.000 C 103.780 357.136,103.600 357.060,103.600 356.832 C 103.600 356.603,102.758 355.648,101.729 354.708 C 100.699 353.769,99.361 352.523,98.755 351.940 C 98.150 351.357,97.552 350.982,97.427 351.106 C 97.302 351.231,97.200 351.033,97.200 350.667 C 97.200 350.300,97.044 350.000,96.854 350.000 C 96.664 350.000,95.604 349.110,94.499 348.022 C 93.394 346.934,92.379 346.154,92.245 346.289 C 92.110 346.423,92.000 346.228,92.000 345.854 C 92.000 345.481,91.708 345.063,91.352 344.926 C 90.996 344.789,89.855 343.806,88.817 342.740 C 87.779 341.675,86.811 340.922,86.665 341.068 C 86.519 341.214,86.400 341.033,86.400 340.667 C 86.400 340.300,86.249 340.000,86.064 340.000 C 85.879 340.000,84.619 338.891,83.264 337.536 C 81.909 336.181,80.800 335.198,80.800 335.352 C 80.800 335.506,80.549 335.399,80.242 335.116 C 79.935 334.832,79.766 334.465,79.866 334.300 C 79.965 334.135,79.879 334.000,79.673 334.000 C 79.468 334.000,77.657 332.373,75.650 330.385 C 73.642 328.396,72.000 326.866,72.000 326.985 C 72.000 327.103,71.669 326.885,71.263 326.500 C 70.858 326.115,70.546 325.710,70.570 325.600 C 70.593 325.490,68.910 323.690,66.829 321.600 C 64.748 319.510,63.306 318.160,63.623 318.600 C 64.156 319.339,64.146 319.358,63.500 318.851 C 63.115 318.549,62.800 318.075,62.800 317.798 C 62.800 317.520,62.403 317.189,61.917 317.063 C 61.432 316.936,61.170 316.697,61.335 316.532 C 61.499 316.367,60.647 315.235,59.441 314.016 C 55.464 309.997,52.800 307.133,52.789 306.865 C 52.770 306.403,50.007 303.600,49.571 303.600 C 49.341 303.600,49.249 303.444,49.367 303.253 C 49.485 303.063,49.225 302.584,48.789 302.190 C 48.353 301.795,47.510 300.511,46.915 299.336 C 46.320 298.161,45.680 297.200,45.493 297.200 C 45.306 297.200,45.255 297.035,45.380 296.832 C 45.505 296.630,45.323 296.180,44.975 295.832 C 44.627 295.485,44.431 295.200,44.539 295.200 C 44.647 295.200,44.146 293.985,43.424 292.500 C 42.703 291.015,41.974 289.358,41.804 288.819 C 41.634 288.279,41.247 287.589,40.944 287.286 C 40.641 286.983,40.496 286.569,40.622 286.365 C 40.748 286.161,40.577 285.720,40.242 285.385 C 39.908 285.051,39.736 284.512,39.860 284.188 C 39.984 283.865,39.876 283.600,39.619 283.600 C 39.363 283.600,39.264 283.420,39.400 283.200 C 39.536 282.980,39.462 282.800,39.236 282.800 C 39.010 282.800,38.929 282.530,39.055 282.200 C 39.182 281.870,39.076 281.600,38.819 281.600 C 38.563 281.600,38.464 281.420,38.600 281.200 C 38.736 280.980,38.627 280.800,38.357 280.800 C 38.087 280.800,37.985 280.682,38.130 280.537 C 38.275 280.392,38.193 280.032,37.948 279.737 C 37.703 279.442,37.605 279.200,37.730 279.200 C 37.856 279.200,37.770 278.660,37.540 278.000 C 37.310 277.340,36.965 276.800,36.773 276.800 C 36.582 276.800,36.529 276.530,36.655 276.200 C 36.782 275.870,36.686 275.600,36.443 275.600 C 36.199 275.600,36.042 275.465,36.092 275.300 C 36.143 275.135,35.805 274.190,35.341 273.200 C 34.876 272.210,34.384 271.069,34.247 270.665 C 34.018 269.987,33.901 270.012,32.744 270.986 C 31.067 272.397,30.066 272.158,28.619 270.000 C 25.721 265.678,28.098 260.759,31.711 263.601 C 32.597 264.298,33.091 263.781,32.381 262.900 C 32.336 262.845,32.255 262.260,32.200 261.600 C 32.145 260.940,32.055 260.310,32.000 260.200 C 31.945 260.090,31.855 259.460,31.800 258.800 C 31.745 258.140,31.655 257.510,31.600 257.400 C 31.545 257.290,31.475 256.705,31.444 256.100 C 31.413 255.495,31.279 254.820,31.146 254.600 C 31.013 254.380,30.966 253.840,31.043 253.400 C 31.120 252.960,31.067 252.330,30.926 252.000 C 30.785 251.670,30.631 250.905,30.585 250.300 C 30.538 249.695,30.455 249.110,30.400 249.000 C 30.345 248.890,30.255 248.260,30.200 247.600 C 30.145 246.940,30.055 246.310,30.000 246.200 C 29.945 246.090,29.855 245.460,29.800 244.800 C 29.745 244.140,29.655 243.510,29.600 243.400 C 29.545 243.290,29.455 242.660,29.400 242.000 C 29.345 241.340,29.261 240.755,29.212 240.700 C 29.164 240.645,29.097 240.060,29.062 239.400 C 29.028 238.740,28.893 238.020,28.762 237.800 C 28.054 236.611,28.719 230.387,29.766 228.400 C 31.272 225.542,32.399 223.198,32.498 222.716 C 32.554 222.443,32.825 221.977,33.100 221.681 C 33.375 221.385,33.633 220.571,33.674 219.871 C 33.714 219.172,33.769 218.235,33.795 217.790 C 33.820 217.344,33.958 216.792,34.099 216.563 C 34.241 216.334,34.471 214.538,34.611 212.573 C 34.846 209.253,34.966 208.022,35.464 203.800 C 35.568 202.920,35.718 201.480,35.797 200.600 C 35.877 199.720,36.034 198.460,36.146 197.800 C 36.690 194.610,37.255 188.413,37.035 188.057 C 36.899 187.836,36.948 187.556,37.144 187.435 C 37.341 187.313,37.508 186.536,37.515 185.707 C 37.523 184.878,37.559 184.110,37.595 184.000 C 37.799 183.383,37.999 181.867,38.228 179.200 C 38.370 177.550,38.568 175.390,38.668 174.400 C 38.769 173.410,38.902 172.042,38.964 171.361 C 39.027 170.679,39.172 169.959,39.288 169.761 C 39.475 169.440,39.905 167.008,40.215 164.519 C 40.276 164.035,40.529 163.021,40.778 162.266 C 41.027 161.511,41.195 160.737,41.151 160.547 C 41.107 160.356,41.284 159.683,41.544 159.052 C 41.804 158.420,42.051 157.430,42.092 156.852 C 42.133 156.273,42.275 155.710,42.407 155.600 C 42.540 155.490,43.057 154.050,43.557 152.400 C 44.057 150.750,44.833 148.590,45.282 147.600 C 45.732 146.610,46.153 145.530,46.219 145.200 C 46.285 144.870,46.374 144.510,46.417 144.400 C 46.460 144.290,46.473 144.065,46.447 143.900 C 46.421 143.735,46.559 143.600,46.753 143.600 C 47.059 143.600,47.731 141.901,47.489 141.742 C 47.440 141.710,47.702 141.350,48.072 140.941 C 48.616 140.340,49.318 138.915,49.717 137.600 C 49.750 137.490,50.368 136.504,51.089 135.409 C 51.810 134.314,52.400 133.099,52.400 132.709 C 52.400 132.319,52.560 132.000,52.757 132.000 C 52.953 132.000,53.228 131.543,53.368 130.984 C 53.509 130.425,53.798 130.075,54.012 130.207 C 54.362 130.423,54.572 129.889,54.447 129.100 C 54.421 128.935,54.565 128.800,54.767 128.800 C 55.094 128.800,56.977 126.108,57.007 125.600 C 57.013 125.490,57.484 124.906,58.054 124.301 C 58.624 123.697,59.605 122.437,60.235 121.501 C 60.865 120.566,61.790 119.370,62.290 118.845 C 62.791 118.320,63.200 117.635,63.200 117.322 C 63.200 117.009,63.380 116.864,63.600 117.000 C 63.820 117.136,64.000 116.986,64.000 116.666 C 64.000 116.347,64.270 115.982,64.600 115.855 C 64.930 115.729,65.200 115.339,65.200 114.989 C 65.200 114.639,65.360 114.452,65.556 114.573 C 65.752 114.694,66.227 114.313,66.612 113.726 C 66.996 113.139,67.781 112.211,68.355 111.664 C 68.930 111.117,69.220 110.772,69.000 110.897 C 68.780 111.023,71.478 108.262,74.996 104.763 C 78.515 101.263,81.452 98.400,81.525 98.400 C 81.598 98.400,81.927 98.130,82.257 97.800 C 82.587 97.470,82.747 97.200,82.613 97.200 C 82.478 97.200,82.601 96.947,82.884 96.638 C 83.168 96.329,83.509 96.104,83.643 96.138 C 83.996 96.228,88.000 92.433,88.000 92.008 C 88.000 91.809,88.208 91.519,88.462 91.362 C 88.771 91.171,88.818 91.262,88.604 91.638 C 88.428 91.947,89.304 91.165,90.550 89.900 C 91.797 88.635,92.993 87.600,93.208 87.600 C 93.424 87.600,93.600 87.330,93.600 87.000 C 93.600 86.670,93.825 86.393,94.100 86.385 C 94.375 86.377,95.680 85.357,97.000 84.119 C 98.320 82.880,99.130 81.994,98.800 82.149 C 98.470 82.303,98.542 82.198,98.961 81.915 C 99.380 81.632,100.005 81.085,100.350 80.700 C 100.695 80.315,101.182 80.000,101.430 80.000 C 101.679 80.000,102.369 79.550,102.962 79.000 C 103.556 78.450,104.268 78.000,104.545 78.000 C 104.822 78.000,105.436 77.640,105.908 77.200 C 106.380 76.760,106.954 76.400,107.183 76.400 C 107.412 76.400,107.600 76.209,107.600 75.976 C 107.600 75.743,107.765 75.655,107.968 75.780 C 108.170 75.905,108.607 75.736,108.939 75.404 C 109.271 75.072,109.736 74.800,109.971 74.800 C 110.207 74.800,110.400 74.590,110.400 74.333 C 110.400 74.077,110.515 73.982,110.656 74.123 C 110.964 74.430,113.200 73.171,113.200 72.690 C 113.200 72.505,113.373 72.460,113.585 72.591 C 113.797 72.722,114.307 72.508,114.719 72.115 C 115.130 71.722,115.722 71.341,116.033 71.268 C 116.345 71.196,116.884 70.881,117.231 70.568 C 117.579 70.256,118.065 70.000,118.312 70.000 C 118.558 70.000,118.944 69.685,119.168 69.300 C 119.392 68.915,119.581 68.745,119.588 68.923 C 119.603 69.334,122.000 67.934,122.000 67.514 C 122.000 67.341,122.270 67.200,122.600 67.200 C 122.930 67.200,123.200 66.990,123.200 66.733 C 123.200 66.477,123.322 66.388,123.470 66.537 C 123.619 66.686,124.188 66.401,124.735 65.904 C 125.282 65.407,125.575 65.270,125.388 65.600 C 125.005 66.272,126.294 65.417,126.894 64.600 C 127.056 64.380,127.191 64.333,127.194 64.495 C 127.197 64.657,128.181 64.162,129.381 63.395 C 130.580 62.628,131.669 62.000,131.800 62.000 C 131.931 62.000,132.975 61.412,134.119 60.693 C 135.264 59.974,137.055 58.956,138.100 58.430 C 139.145 57.904,140.000 57.323,140.000 57.137 C 140.000 56.952,140.135 56.832,140.300 56.871 C 140.736 56.973,146.946 53.904,147.294 53.414 C 147.456 53.186,147.591 53.150,147.594 53.333 C 147.597 53.516,148.185 53.310,148.900 52.876 C 149.615 52.442,150.783 51.963,151.495 51.812 C 152.208 51.662,152.894 51.372,153.019 51.169 C 153.145 50.966,153.597 50.800,154.024 50.800 C 154.451 50.800,154.800 50.609,154.800 50.376 C 154.800 50.143,154.937 50.037,155.104 50.141 C 155.271 50.244,156.036 50.046,156.804 49.700 C 157.572 49.354,158.335 49.033,158.500 48.985 C 158.665 48.938,158.935 48.856,159.100 48.803 C 159.265 48.749,159.535 48.727,159.700 48.753 C 159.865 48.779,160.000 48.626,160.000 48.413 C 160.000 48.199,160.270 48.129,160.600 48.255 C 160.930 48.382,161.200 48.276,161.200 48.019 C 161.200 47.763,161.368 47.656,161.572 47.783 C 161.777 47.909,162.060 47.827,162.200 47.600 C 162.340 47.373,162.610 47.282,162.798 47.399 C 162.987 47.515,163.919 47.355,164.870 47.042 C 165.822 46.729,167.230 46.345,168.000 46.189 C 168.770 46.034,169.580 45.797,169.800 45.665 C 170.020 45.532,170.563 45.403,171.007 45.379 C 171.451 45.354,172.351 45.185,173.007 45.003 C 173.663 44.822,174.380 44.639,174.600 44.598 C 174.820 44.556,175.090 44.472,175.200 44.412 C 175.310 44.352,176.030 44.258,176.800 44.205 C 177.570 44.151,179.190 43.972,180.400 43.806 C 181.610 43.640,183.050 43.453,183.600 43.392 C 184.150 43.330,184.600 43.250,184.600 43.213 C 184.600 43.047,192.534 42.758,195.400 42.820 C 205.611 43.040,208.568 42.822,210.292 41.722 C 211.404 41.011,212.696 39.535,212.459 39.245 C 212.389 39.159,212.530 38.967,212.773 38.817 C 213.973 38.075,214.449 27.683,213.300 27.300 C 213.025 27.208,212.800 27.283,212.800 27.467 C 212.800 27.650,211.990 27.800,211.000 27.800 C 210.010 27.800,209.200 27.665,209.200 27.500 C 209.200 27.335,209.013 27.200,208.784 27.200 C 208.252 27.200,205.902 25.560,205.475 24.892 C 205.297 24.612,205.001 24.476,204.817 24.589 C 204.634 24.703,204.381 24.526,204.254 24.198 C 204.128 23.869,203.739 23.600,203.389 23.600 C 203.039 23.600,202.861 23.425,202.993 23.212 C 203.125 22.998,202.788 22.712,202.245 22.576 C 201.702 22.439,201.167 22.091,201.056 21.802 C 200.945 21.512,200.257 21.148,199.527 20.992 C 198.797 20.835,197.975 20.526,197.700 20.305 C 197.355 20.027,197.200 20.048,197.200 20.375 M259.200 33.639 C 258.430 33.805,256.939 33.881,255.886 33.808 C 253.035 33.611,250.293 35.505,249.055 38.526 C 248.914 38.871,248.756 38.851,248.475 38.449 C 248.263 38.146,247.902 38.014,247.672 38.155 C 247.443 38.297,247.161 38.260,247.045 38.073 C 246.863 37.778,244.671 37.505,242.800 37.545 C 242.470 37.552,240.802 37.575,239.092 37.596 C 233.405 37.667,230.055 40.067,229.182 44.695 C 228.904 46.171,228.845 47.397,229.047 47.543 C 229.241 47.685,229.464 48.248,229.541 48.797 C 229.776 50.449,233.558 55.177,234.657 55.193 C 234.909 55.197,235.204 55.425,235.313 55.700 C 235.423 55.975,236.207 56.558,237.056 56.996 C 237.905 57.434,238.690 57.884,238.800 57.996 C 239.482 58.692,246.522 61.675,247.106 61.516 C 247.268 61.472,248.071 61.666,248.892 61.946 C 249.713 62.227,250.553 62.353,250.758 62.226 C 250.964 62.099,251.192 62.172,251.266 62.389 C 251.400 62.782,255.925 63.261,259.900 63.302 C 261.055 63.314,262.000 63.485,262.000 63.682 C 262.000 64.059,264.784 65.402,265.300 65.274 C 265.465 65.233,265.600 65.372,265.600 65.581 C 265.600 65.791,266.275 66.279,267.100 66.666 C 267.925 67.053,268.840 67.603,269.132 67.889 C 269.425 68.174,269.858 68.288,270.094 68.142 C 270.338 67.991,270.408 68.063,270.256 68.309 C 270.007 68.713,271.423 69.458,272.100 69.279 C 272.265 69.236,272.400 69.353,272.400 69.540 C 272.400 69.980,276.286 72.400,276.993 72.400 C 277.290 72.400,277.593 72.557,277.667 72.748 C 277.804 73.107,282.149 75.977,282.694 76.069 C 282.862 76.097,283.180 76.332,283.400 76.591 C 284.019 77.319,292.162 82.602,292.500 82.495 C 292.665 82.443,292.800 82.580,292.800 82.800 C 292.800 83.020,293.081 83.200,293.424 83.200 C 293.767 83.200,293.948 83.361,293.826 83.558 C 293.634 83.869,294.729 84.556,295.155 84.392 C 295.241 84.359,295.421 84.488,295.555 84.678 C 296.017 85.332,301.000 88.894,301.969 89.263 C 302.503 89.467,303.349 90.076,303.850 90.616 C 304.352 91.157,305.051 91.600,305.405 91.600 C 305.758 91.600,305.955 91.750,305.841 91.933 C 305.728 92.116,306.392 92.654,307.318 93.128 C 308.243 93.601,308.820 93.992,308.600 93.996 C 308.380 94.000,308.830 94.398,309.600 94.881 C 310.370 95.364,311.130 95.726,311.288 95.684 C 311.446 95.642,311.768 95.966,312.002 96.404 C 312.236 96.842,312.673 97.200,312.971 97.200 C 313.270 97.200,313.628 97.496,313.767 97.857 C 313.905 98.219,314.115 98.418,314.232 98.301 C 314.350 98.183,315.021 98.614,315.723 99.258 C 316.425 99.902,317.404 100.532,317.897 100.657 C 318.391 100.783,318.711 101.021,318.609 101.186 C 318.507 101.351,319.048 101.823,319.811 102.234 C 320.575 102.645,321.200 103.108,321.200 103.262 C 321.200 103.416,321.912 103.856,322.781 104.240 C 323.651 104.623,324.278 105.073,324.175 105.240 C 324.073 105.406,324.322 105.648,324.729 105.778 C 325.137 105.907,326.070 106.549,326.804 107.204 C 327.538 107.859,328.208 108.325,328.294 108.239 C 328.379 108.154,328.911 108.512,329.475 109.034 C 330.039 109.557,330.686 109.871,330.912 109.731 C 331.138 109.591,331.216 109.651,331.084 109.865 C 330.842 110.256,333.142 111.862,333.700 111.692 C 333.865 111.641,334.000 111.779,334.000 111.999 C 334.000 113.112,338.735 113.789,340.183 112.884 C 340.412 112.740,340.960 112.568,341.400 112.500 C 341.840 112.432,342.260 112.201,342.334 111.986 C 342.408 111.771,342.618 111.688,342.802 111.801 C 342.985 111.915,343.414 111.729,343.753 111.389 C 344.093 111.050,344.437 110.823,344.517 110.886 C 344.597 110.949,345.316 110.648,346.115 110.218 C 347.971 109.218,347.894 109.071,348.108 114.000 C 348.293 118.273,349.022 123.212,349.523 123.591 C 349.676 123.706,349.864 124.250,349.942 124.800 C 350.020 125.350,350.372 126.340,350.724 127.000 C 351.076 127.660,351.321 128.354,351.268 128.542 C 351.215 128.730,351.395 129.153,351.667 129.481 C 351.940 129.809,352.217 130.434,352.284 130.870 C 352.477 132.139,354.078 135.760,354.657 136.240 C 354.949 136.481,355.075 136.792,354.937 136.930 C 354.798 137.068,354.981 137.295,355.343 137.433 C 355.704 137.572,356.001 137.891,356.003 138.143 C 356.009 139.027,362.340 144.400,363.376 144.400 C 363.503 144.400,364.191 144.970,364.904 145.666 C 365.617 146.362,365.942 146.781,365.627 146.597 C 365.313 146.414,365.583 146.969,366.227 147.832 C 366.872 148.694,367.536 149.460,367.702 149.534 C 367.869 149.608,367.898 149.841,367.768 150.052 C 367.638 150.263,367.702 150.652,367.910 150.918 C 369.002 152.306,369.558 158.077,368.940 161.600 C 368.547 163.838,368.485 164.099,367.866 166.100 C 367.543 167.145,367.441 168.000,367.639 168.000 C 367.838 168.000,367.969 168.135,367.932 168.300 C 367.819 168.800,370.517 174.400,370.871 174.400 C 371.052 174.400,371.200 174.593,371.200 174.829 C 371.200 175.064,371.472 175.529,371.804 175.861 C 372.136 176.193,372.305 176.630,372.180 176.832 C 372.055 177.035,372.124 177.200,372.333 177.200 C 372.542 177.200,372.816 177.605,372.942 178.100 C 373.068 178.595,373.698 179.575,374.342 180.277 C 374.986 180.979,375.452 181.615,375.377 181.690 C 375.302 181.765,375.837 182.579,376.566 183.501 C 377.295 184.422,378.006 185.061,378.146 184.921 C 378.286 184.781,378.400 184.887,378.400 185.157 C 378.400 185.848,382.364 189.961,383.691 190.647 C 385.436 191.550,386.146 192.976,386.049 195.385 C 385.990 196.830,386.154 197.697,386.562 198.105 C 386.892 198.435,387.076 198.791,386.971 198.895 C 386.866 199.000,387.048 199.308,387.374 199.578 C 388.212 200.274,390.231 199.741,391.142 198.583 C 392.244 197.182,392.300 197.541,391.716 202.290 C 390.885 209.045,390.756 210.648,390.592 216.200 C 390.507 219.060,390.615 222.120,390.830 223.000 C 391.045 223.880,391.290 225.198,391.373 225.930 C 391.558 227.540,391.997 228.113,392.015 226.768 C 392.042 224.845,392.317 220.600,392.415 220.600 C 392.471 220.600,392.578 219.880,392.654 219.000 C 392.730 218.120,392.893 216.410,393.016 215.200 C 393.139 213.990,393.296 212.370,393.365 211.600 C 393.434 210.830,393.677 209.480,393.905 208.600 C 394.133 207.720,394.323 206.730,394.328 206.400 C 394.332 206.070,394.440 205.350,394.566 204.800 C 394.693 204.250,394.888 203.260,394.998 202.600 C 395.109 201.940,395.305 200.860,395.433 200.200 C 395.562 199.540,395.717 198.730,395.778 198.400 C 395.839 198.070,395.999 197.530,396.134 197.200 C 396.269 196.870,396.556 195.790,396.773 194.800 C 396.989 193.810,397.522 191.928,397.956 190.618 C 398.391 189.309,398.658 188.094,398.550 187.918 C 398.441 187.743,398.563 187.600,398.819 187.600 C 399.076 187.600,399.196 187.367,399.087 187.083 C 398.978 186.799,399.139 186.225,399.444 185.807 C 400.210 184.759,400.140 184.438,399.200 184.684 C 398.760 184.799,398.400 185.052,398.400 185.247 C 398.400 185.441,398.119 185.600,397.776 185.600 C 397.433 185.600,397.252 185.761,397.374 185.958 C 397.496 186.155,397.335 186.416,397.016 186.539 C 396.697 186.661,396.086 187.445,395.657 188.281 C 392.914 193.630,391.809 192.416,391.758 184.000 C 391.735 180.150,391.610 175.740,391.481 174.200 C 391.352 172.660,391.213 170.452,391.173 169.293 C 391.133 168.134,390.940 167.086,390.743 166.965 C 390.547 166.844,390.489 166.580,390.613 166.378 C 390.738 166.177,390.639 164.549,390.395 162.761 C 390.150 160.973,389.875 158.856,389.785 158.055 C 389.509 155.618,389.229 153.098,389.011 151.078 C 388.897 150.021,388.682 148.671,388.533 148.078 C 388.384 147.485,388.229 146.370,388.188 145.600 C 388.147 144.830,388.061 144.110,387.997 144.000 C 387.932 143.890,387.845 143.260,387.803 142.600 C 387.548 138.607,387.378 137.652,386.687 136.300 C 386.265 135.475,385.747 134.800,385.536 134.800 C 385.325 134.800,385.251 134.640,385.372 134.445 C 385.493 134.250,385.323 133.868,384.996 133.596 C 384.668 133.324,384.400 132.848,384.400 132.538 C 384.400 132.229,384.131 131.872,383.802 131.746 C 383.474 131.619,383.292 131.375,383.398 131.203 C 383.504 131.031,383.323 130.668,382.996 130.396 C 382.668 130.124,382.400 129.648,382.400 129.338 C 382.400 129.029,382.131 128.672,381.802 128.546 C 381.474 128.419,381.292 128.175,381.398 128.003 C 381.504 127.831,381.323 127.468,380.996 127.196 C 380.668 126.924,380.400 126.448,380.400 126.138 C 380.400 125.829,380.131 125.472,379.802 125.346 C 379.474 125.219,379.292 124.975,379.398 124.803 C 379.504 124.631,379.323 124.268,378.996 123.996 C 378.668 123.724,378.400 123.248,378.400 122.938 C 378.400 122.629,378.131 122.272,377.802 122.146 C 377.474 122.019,377.292 121.775,377.398 121.603 C 377.504 121.431,377.323 121.068,376.996 120.796 C 376.668 120.524,376.400 120.048,376.400 119.738 C 376.400 119.429,376.131 119.072,375.802 118.946 C 375.474 118.819,375.292 118.575,375.398 118.403 C 375.504 118.231,375.323 117.868,374.996 117.596 C 374.668 117.324,374.400 116.848,374.400 116.538 C 374.400 116.229,374.131 115.872,373.802 115.746 C 373.474 115.619,373.292 115.375,373.398 115.203 C 373.504 115.031,373.323 114.668,372.996 114.396 C 372.668 114.124,372.400 113.648,372.400 113.338 C 372.400 113.029,372.131 112.672,371.802 112.546 C 371.474 112.419,371.292 112.175,371.398 112.003 C 371.504 111.831,371.323 111.468,370.996 111.196 C 370.668 110.924,370.400 110.448,370.400 110.138 C 370.400 109.829,370.131 109.472,369.802 109.346 C 369.474 109.219,369.292 108.975,369.398 108.803 C 369.504 108.631,369.323 108.268,368.996 107.996 C 368.668 107.724,368.400 107.248,368.400 106.938 C 368.400 106.629,368.131 106.272,367.802 106.146 C 367.474 106.019,367.292 105.775,367.398 105.603 C 367.504 105.431,367.323 105.068,366.996 104.796 C 366.668 104.524,366.400 104.063,366.400 103.771 C 366.400 103.479,366.085 103.056,365.700 102.832 C 365.315 102.608,365.169 102.419,365.375 102.412 C 365.581 102.405,365.221 101.832,364.575 101.138 C 363.929 100.444,363.670 100.007,364.000 100.168 C 364.373 100.349,364.338 100.244,363.906 99.890 C 363.525 99.577,363.304 99.229,363.416 99.117 C 363.528 99.006,363.345 98.686,363.010 98.408 C 362.674 98.130,362.400 97.648,362.400 97.338 C 362.400 97.029,362.131 96.672,361.802 96.546 C 361.474 96.419,361.292 96.175,361.398 96.003 C 361.504 95.831,361.323 95.468,360.996 95.196 C 360.668 94.924,360.400 94.448,360.400 94.138 C 360.400 93.829,360.131 93.472,359.802 93.346 C 359.474 93.219,359.292 92.975,359.398 92.803 C 359.504 92.631,359.323 92.268,358.996 91.996 C 358.668 91.724,358.400 91.248,358.400 90.938 C 358.400 90.629,358.131 90.272,357.802 90.146 C 357.474 90.019,357.292 89.775,357.398 89.603 C 357.504 89.431,357.323 89.068,356.996 88.796 C 356.668 88.524,356.400 88.048,356.400 87.738 C 356.400 87.429,356.131 87.072,355.802 86.946 C 355.474 86.819,355.292 86.575,355.398 86.403 C 355.504 86.231,355.323 85.868,354.996 85.596 C 354.668 85.324,354.400 84.863,354.400 84.571 C 354.400 84.279,354.085 83.856,353.700 83.632 C 353.315 83.408,353.169 83.219,353.375 83.212 C 353.581 83.205,353.221 82.632,352.575 81.938 C 351.929 81.244,351.670 80.807,352.000 80.968 C 352.330 81.128,352.251 80.976,351.824 80.630 C 351.396 80.283,351.205 80.000,351.398 80.000 C 351.592 80.000,351.221 79.432,350.575 78.738 C 349.929 78.044,349.670 77.607,350.000 77.768 C 350.330 77.928,350.251 77.776,349.824 77.430 C 349.396 77.083,349.205 76.800,349.398 76.800 C 349.592 76.800,349.221 76.232,348.575 75.538 C 347.929 74.844,347.670 74.407,348.000 74.568 C 348.330 74.728,348.273 74.592,347.873 74.266 C 347.474 73.940,347.152 73.521,347.159 73.336 C 347.165 73.151,346.779 72.550,346.301 72.000 C 345.823 71.450,345.424 70.912,345.416 70.804 C 345.407 70.697,344.638 69.797,343.707 68.804 C 342.776 67.812,342.011 66.865,342.007 66.700 C 342.003 66.535,341.775 66.399,341.500 66.397 C 341.225 66.396,340.692 65.854,340.317 65.194 C 339.941 64.533,339.191 63.825,338.651 63.619 C 338.110 63.414,337.551 62.876,337.407 62.423 C 337.264 61.970,337.005 61.600,336.831 61.600 C 336.658 61.600,336.031 61.150,335.438 60.600 C 334.844 60.050,334.177 59.600,333.956 59.600 C 333.734 59.600,333.664 59.420,333.800 59.200 C 333.936 58.980,333.891 58.800,333.699 58.800 C 333.508 58.800,332.957 58.433,332.475 57.984 C 331.994 57.536,331.597 57.311,331.594 57.484 C 331.591 57.658,331.456 57.602,331.294 57.359 C 330.546 56.237,321.180 49.397,321.829 50.447 C 321.964 50.665,321.113 50.107,319.937 49.206 C 318.762 48.305,317.305 47.462,316.700 47.334 C 316.095 47.205,315.600 46.932,315.600 46.726 C 315.600 46.521,315.420 46.464,315.200 46.600 C 314.980 46.736,314.800 46.685,314.800 46.488 C 314.800 46.102,312.797 45.014,312.300 45.130 C 312.135 45.169,312.000 45.009,312.000 44.776 C 312.000 44.543,311.835 44.455,311.632 44.580 C 311.430 44.705,310.982 44.525,310.636 44.179 C 310.291 43.834,309.646 43.524,309.204 43.490 C 308.762 43.457,308.400 43.258,308.400 43.048 C 308.400 42.838,308.289 42.778,308.152 42.914 C 308.016 43.050,307.642 42.899,307.320 42.577 C 306.999 42.256,306.582 42.087,306.395 42.203 C 306.208 42.318,305.940 42.227,305.800 42.000 C 305.660 41.773,305.377 41.691,305.172 41.817 C 304.968 41.944,304.800 41.893,304.800 41.704 C 304.800 41.414,302.432 40.345,301.818 40.358 C 301.709 40.361,301.133 40.110,300.538 39.802 C 299.944 39.493,299.309 39.332,299.129 39.444 C 298.948 39.556,298.800 39.483,298.800 39.282 C 298.800 39.082,297.225 38.432,295.300 37.839 C 293.375 37.246,290.672 36.401,289.292 35.962 C 287.913 35.522,286.608 35.271,286.392 35.405 C 286.177 35.538,286.000 35.468,286.000 35.248 C 286.000 35.029,285.145 34.732,284.100 34.589 C 283.055 34.446,281.750 34.234,281.200 34.119 C 278.164 33.480,261.621 33.120,259.200 33.639 M196.294 112.639 C 196.184 112.749,195.128 112.919,193.947 113.017 C 190.185 113.329,189.075 113.459,185.600 113.990 C 183.730 114.275,181.750 114.689,181.200 114.909 C 180.650 115.129,179.589 115.382,178.842 115.472 C 178.094 115.561,177.161 115.807,176.768 116.017 C 176.374 116.228,175.765 116.400,175.413 116.400 C 175.062 116.400,174.105 116.699,173.287 117.064 C 172.469 117.429,171.680 117.744,171.533 117.764 C 171.387 117.784,171.132 117.935,170.967 118.100 C 170.802 118.265,170.367 118.400,170.001 118.400 C 169.635 118.400,168.450 118.849,167.368 119.398 C 166.286 119.947,165.175 120.397,164.900 120.398 C 164.625 120.399,164.400 120.591,164.400 120.824 C 164.400 121.057,164.220 121.136,164.000 121.000 C 163.780 120.864,163.600 120.954,163.600 121.200 C 163.600 121.446,163.420 121.536,163.200 121.400 C 162.980 121.264,162.800 121.354,162.800 121.600 C 162.800 121.846,162.635 121.945,162.432 121.820 C 162.230 121.695,161.825 121.832,161.532 122.125 C 161.240 122.418,160.820 122.702,160.600 122.757 C 159.582 123.012,157.600 124.128,157.600 124.446 C 157.600 124.641,157.330 124.800,157.000 124.800 C 156.670 124.800,156.055 125.145,155.633 125.567 C 155.212 125.988,154.762 126.228,154.633 126.100 C 154.505 125.972,154.400 126.055,154.400 126.285 C 154.400 126.515,153.856 126.928,153.192 127.203 C 152.527 127.479,151.544 128.226,151.007 128.865 C 150.470 129.503,149.909 129.993,149.762 129.954 C 149.298 129.831,144.400 134.496,144.400 135.062 C 144.400 135.358,144.201 135.600,143.958 135.600 C 143.439 135.600,141.754 137.642,141.900 138.092 C 141.955 138.262,141.844 138.400,141.654 138.400 C 141.154 138.400,138.383 142.049,138.607 142.412 C 138.711 142.579,138.515 142.824,138.172 142.955 C 137.830 143.087,137.650 143.357,137.772 143.555 C 137.895 143.754,137.715 144.024,137.372 144.155 C 137.030 144.287,136.855 144.565,136.984 144.773 C 137.112 144.982,136.865 145.481,136.434 145.882 C 135.193 147.039,131.649 155.483,131.484 157.679 C 131.454 158.075,131.269 158.400,131.072 158.400 C 130.875 158.400,130.816 158.664,130.940 158.987 C 131.064 159.310,131.009 159.671,130.818 159.789 C 130.466 160.007,129.858 163.307,129.306 168.000 C 128.957 170.964,128.968 178.822,129.325 181.800 C 129.457 182.900,129.667 184.679,129.792 185.753 C 129.917 186.828,130.119 187.869,130.241 188.067 C 130.364 188.265,130.544 189.096,130.641 189.913 C 130.854 191.686,132.815 197.703,133.287 198.029 C 133.469 198.156,133.698 198.669,133.794 199.170 C 133.996 200.217,136.320 204.479,136.888 204.845 C 137.097 204.979,137.209 205.159,137.136 205.245 C 136.887 205.535,138.771 208.400,139.210 208.400 C 139.451 208.400,139.535 208.581,139.398 208.803 C 139.261 209.024,139.430 209.313,139.772 209.445 C 140.115 209.576,140.313 209.818,140.211 209.982 C 140.110 210.145,140.471 210.665,141.014 211.137 C 141.556 211.609,142.000 212.187,142.000 212.421 C 142.000 212.655,142.180 212.736,142.400 212.600 C 142.620 212.464,142.804 212.588,142.809 212.876 C 142.818 213.395,147.055 217.800,147.545 217.800 C 147.685 217.800,147.755 217.935,147.700 218.100 C 147.645 218.265,147.748 218.400,147.928 218.400 C 148.108 218.400,148.873 218.934,149.628 219.588 C 151.528 221.232,151.658 221.327,152.900 221.968 C 153.505 222.280,154.000 222.668,154.000 222.830 C 154.000 223.116,157.377 225.238,157.793 225.213 C 157.907 225.206,158.356 225.556,158.791 225.991 C 159.505 226.705,162.046 227.990,162.663 227.948 C 162.799 227.939,163.035 228.132,163.186 228.378 C 163.583 229.019,169.660 232.010,170.063 231.761 C 170.248 231.647,170.400 231.743,170.400 231.976 C 170.400 232.209,170.676 232.400,171.014 232.400 C 171.352 232.400,172.072 232.691,172.614 233.046 C 173.156 233.401,173.600 233.596,173.600 233.478 C 173.600 233.360,174.424 233.701,175.430 234.237 C 176.437 234.772,177.427 235.107,177.630 234.981 C 177.834 234.856,178.000 234.929,178.000 235.144 C 178.000 235.521,182.881 237.332,183.900 237.333 C 184.175 237.333,184.400 237.451,184.400 237.594 C 184.400 237.887,188.431 239.056,188.900 238.900 C 189.065 238.845,189.200 238.960,189.200 239.155 C 189.200 239.351,189.875 239.652,190.700 239.824 C 192.230 240.144,192.571 240.226,193.100 240.397 C 193.265 240.451,193.535 240.473,193.700 240.447 C 193.865 240.421,194.000 240.560,194.000 240.755 C 194.000 240.951,194.675 241.252,195.500 241.424 C 196.325 241.597,197.090 241.758,197.200 241.783 C 197.310 241.808,197.781 242.041,198.247 242.300 C 198.713 242.560,199.208 242.658,199.347 242.519 C 199.486 242.380,199.600 242.477,199.600 242.733 C 199.600 242.990,199.872 243.200,200.205 243.200 C 200.538 243.200,201.123 243.359,201.505 243.553 C 202.639 244.130,206.821 245.781,207.200 245.801 C 207.310 245.807,207.640 245.964,207.933 246.150 C 208.226 246.336,209.576 247.070,210.933 247.782 C 217.110 251.022,218.264 251.724,219.212 252.825 C 219.769 253.471,220.372 254.000,220.552 254.000 C 221.019 254.000,223.011 256.199,224.013 257.822 C 224.482 258.580,225.041 259.200,225.256 259.200 C 225.471 259.200,225.545 259.365,225.420 259.568 C 225.295 259.770,225.419 260.179,225.696 260.477 C 225.973 260.775,226.272 261.285,226.359 261.610 C 226.447 261.934,226.762 263.094,227.059 264.187 C 227.357 265.280,227.600 266.574,227.600 267.064 C 227.600 267.553,227.739 268.039,227.908 268.143 C 228.169 268.305,228.247 278.411,227.989 278.700 C 227.940 278.755,227.855 279.160,227.800 279.600 C 227.745 280.040,227.664 280.445,227.619 280.500 C 227.491 280.659,227.232 281.729,227.111 282.600 C 227.050 283.040,226.765 283.648,226.477 283.952 C 226.189 284.255,226.049 284.750,226.164 285.052 C 226.280 285.353,226.229 285.600,226.052 285.600 C 225.775 285.600,224.765 287.403,224.707 288.000 C 224.641 288.674,219.461 293.450,217.706 294.454 C 216.548 295.116,215.600 295.836,215.600 296.053 C 215.600 296.270,215.420 296.336,215.200 296.200 C 214.980 296.064,214.800 296.138,214.800 296.364 C 214.800 296.590,214.530 296.671,214.200 296.545 C 213.870 296.418,213.600 296.524,213.600 296.781 C 213.600 297.037,213.452 297.156,213.271 297.044 C 213.091 296.932,212.476 297.083,211.905 297.379 C 207.096 299.874,193.921 300.768,185.706 299.157 C 184.554 298.931,183.441 298.851,183.233 298.979 C 183.025 299.108,182.755 299.051,182.633 298.853 C 182.451 298.558,180.691 298.133,178.200 297.781 C 177.980 297.750,177.293 297.517,176.674 297.262 C 176.055 297.008,175.110 296.800,174.574 296.800 C 174.038 296.800,173.600 296.612,173.600 296.382 C 173.600 296.153,173.375 296.001,173.100 296.045 C 172.825 296.088,171.972 295.842,171.204 295.498 C 170.436 295.153,169.671 294.956,169.504 295.059 C 169.337 295.163,169.200 295.085,169.200 294.888 C 169.200 294.400,167.231 293.533,166.770 293.819 C 166.567 293.944,166.400 293.860,166.400 293.631 C 166.400 293.402,165.905 293.098,165.300 292.954 C 164.695 292.810,163.901 292.433,163.535 292.116 C 163.169 291.799,162.628 291.504,162.332 291.461 C 162.037 291.417,161.361 291.078,160.832 290.708 C 160.303 290.337,159.674 290.145,159.435 290.281 C 159.196 290.417,159.142 290.372,159.316 290.182 C 159.489 289.991,159.095 289.557,158.439 289.218 C 156.428 288.176,153.530 286.345,150.700 284.327 C 149.215 283.268,148.000 282.482,148.000 282.581 C 148.000 282.679,147.325 282.139,146.500 281.382 C 145.093 280.089,144.001 279.617,144.000 280.300 C 143.999 280.465,142.655 282.040,141.013 283.800 C 139.371 285.560,138.021 287.131,138.013 287.292 C 138.006 287.452,137.196 288.325,136.213 289.231 C 135.230 290.137,134.465 291.005,134.513 291.160 C 134.561 291.315,133.610 292.400,132.400 293.571 C 131.190 294.742,130.470 295.557,130.800 295.383 C 131.130 295.209,130.410 295.991,129.200 297.122 C 127.990 298.253,127.122 299.183,127.271 299.189 C 127.421 299.195,126.431 300.339,125.071 301.731 C 123.712 303.123,121.914 305.031,121.075 305.972 L 119.549 307.682 120.675 308.830 C 121.294 309.461,122.025 309.983,122.300 309.989 C 122.575 309.995,122.755 310.159,122.700 310.353 C 122.645 310.547,124.040 311.850,125.800 313.249 C 127.560 314.647,129.262 316.043,129.583 316.350 C 129.903 316.657,130.713 317.147,131.383 317.438 C 132.052 317.730,132.420 317.977,132.200 317.986 C 131.634 318.011,135.293 320.396,135.900 320.398 C 136.175 320.399,136.400 320.550,136.400 320.732 C 136.400 320.915,136.895 321.315,137.500 321.622 C 138.105 321.928,139.026 322.496,139.547 322.884 C 140.068 323.272,140.653 323.491,140.847 323.371 C 141.041 323.251,141.200 323.331,141.200 323.549 C 141.200 323.947,142.737 324.628,143.300 324.479 C 143.465 324.436,143.600 324.575,143.600 324.790 C 143.600 325.238,145.427 326.254,146.603 326.460 C 147.041 326.537,147.490 326.690,147.600 326.800 C 148.215 327.415,152.281 329.177,153.600 329.400 C 153.710 329.418,154.402 329.754,155.137 330.146 C 155.873 330.538,156.578 330.755,156.705 330.628 C 156.832 330.501,157.327 330.653,157.804 330.966 C 158.520 331.435,160.427 332.079,162.600 332.586 C 163.053 332.692,164.161 333.089,165.530 333.638 C 166.041 333.843,166.647 333.895,166.875 333.754 C 167.103 333.613,167.409 333.691,167.556 333.928 C 167.702 334.165,168.454 334.424,169.226 334.503 C 169.998 334.583,170.860 334.790,171.141 334.964 C 171.423 335.138,171.755 335.178,171.879 335.054 C 172.003 334.930,172.414 334.994,172.792 335.196 C 173.170 335.398,174.272 335.651,175.240 335.758 C 176.208 335.865,177.450 336.046,178.000 336.161 C 178.550 336.275,180.015 336.443,181.255 336.533 C 182.496 336.624,183.692 336.810,183.915 336.947 C 184.138 337.085,185.193 337.207,186.260 337.219 C 187.327 337.232,192.070 337.301,196.800 337.374 C 204.530 337.494,209.041 337.279,213.200 336.594 C 213.970 336.467,214.960 336.365,215.400 336.367 C 215.840 336.369,216.920 336.178,217.800 335.943 C 218.680 335.708,220.022 335.438,220.783 335.343 C 223.179 335.046,227.757 333.924,228.849 333.367 C 229.426 333.073,229.982 332.916,230.085 333.018 C 230.187 333.120,231.515 332.738,233.035 332.169 C 234.556 331.600,236.160 331.026,236.600 330.895 C 237.040 330.763,237.630 330.426,237.912 330.145 C 238.193 329.864,238.688 329.736,239.012 329.860 C 239.335 329.984,239.600 329.901,239.600 329.675 C 239.600 329.449,240.500 328.965,241.600 328.600 C 242.700 328.235,243.600 327.760,243.600 327.544 C 243.600 327.329,243.780 327.264,244.000 327.400 C 244.220 327.536,244.400 327.457,244.400 327.224 C 244.400 326.991,244.535 326.836,244.700 326.881 C 245.206 327.016,249.600 324.766,249.600 324.371 C 249.600 324.167,249.801 324.000,250.046 324.000 C 250.521 324.000,255.223 320.965,256.655 319.735 C 257.125 319.331,258.205 318.466,259.055 317.813 C 261.393 316.016,268.000 309.173,268.000 308.549 C 268.000 308.247,268.180 308.000,268.400 308.000 C 268.620 308.000,268.800 307.812,268.800 307.583 C 268.800 307.353,269.250 306.680,269.800 306.087 C 270.350 305.493,270.800 304.781,270.800 304.504 C 270.800 304.227,270.977 304.000,271.192 304.000 C 271.408 304.000,271.698 303.550,271.836 303.000 C 271.974 302.450,272.226 302.000,272.397 302.000 C 272.782 302.000,275.333 296.926,275.333 296.159 C 275.333 295.852,275.483 295.600,275.667 295.600 C 275.850 295.600,276.000 295.321,276.000 294.980 C 276.000 294.639,276.260 293.857,276.578 293.243 C 276.896 292.628,277.228 291.692,277.315 291.163 C 277.403 290.633,277.690 289.674,277.954 289.031 C 278.217 288.388,278.349 287.645,278.248 287.380 C 278.146 287.115,278.218 286.741,278.407 286.549 C 278.878 286.073,279.295 283.678,280.000 277.400 C 280.320 274.557,280.003 259.800,279.623 259.800 C 279.549 259.800,279.210 257.028,279.158 256.000 C 279.115 255.139,278.419 252.753,277.905 251.701 C 277.663 251.206,277.571 250.696,277.700 250.567 C 278.140 250.127,275.293 242.800,274.682 242.800 C 274.501 242.800,274.464 242.620,274.600 242.400 C 274.736 242.180,274.646 242.000,274.400 242.000 C 274.154 242.000,274.064 241.820,274.200 241.600 C 274.336 241.380,274.246 241.200,274.000 241.200 C 273.754 241.200,273.643 241.054,273.754 240.875 C 274.013 240.456,271.984 236.916,270.687 235.525 C 270.135 234.933,269.781 234.353,269.899 234.234 C 270.018 234.116,269.812 233.903,269.442 233.761 C 269.073 233.619,268.519 233.030,268.211 232.452 C 267.347 230.829,260.348 224.063,258.468 223.034 C 258.101 222.833,257.710 222.563,257.600 222.434 C 256.978 221.706,253.667 219.667,253.453 219.880 C 253.314 220.019,253.200 219.944,253.200 219.712 C 253.200 218.964,241.494 212.400,240.159 212.400 C 239.888 212.400,239.603 212.210,239.526 211.978 C 239.449 211.746,239.119 211.506,238.793 211.445 C 238.154 211.324,236.804 210.772,234.079 209.516 C 233.133 209.080,232.143 208.690,231.879 208.650 C 231.616 208.610,231.130 208.404,230.800 208.192 C 229.982 207.666,227.617 206.778,226.400 206.538 C 225.850 206.430,224.726 205.984,223.902 205.546 C 223.078 205.109,222.223 204.862,222.002 204.999 C 221.781 205.135,221.600 205.091,221.600 204.899 C 221.600 204.558,217.691 203.360,217.100 203.519 C 216.935 203.564,216.800 203.401,216.800 203.157 C 216.800 202.914,216.530 202.818,216.200 202.945 C 215.870 203.071,215.600 202.981,215.600 202.745 C 215.600 202.508,215.367 202.404,215.083 202.513 C 214.799 202.622,214.225 202.461,213.807 202.156 C 213.389 201.850,212.661 201.600,212.190 201.600 C 211.719 201.600,211.198 201.465,211.033 201.300 C 210.868 201.135,210.613 200.994,210.467 200.986 C 210.320 200.978,209.795 200.747,209.300 200.472 C 208.805 200.197,208.400 200.090,208.400 200.235 C 208.400 200.380,208.130 200.274,207.800 200.000 C 207.470 199.726,207.200 199.618,207.200 199.760 C 207.200 199.902,206.750 199.724,206.200 199.363 C 205.650 199.003,205.200 198.807,205.200 198.927 C 205.200 199.047,203.594 198.348,201.632 197.373 C 199.669 196.398,197.852 195.600,197.594 195.600 C 197.335 195.600,196.633 195.251,196.034 194.824 C 195.434 194.397,194.701 193.992,194.405 193.924 C 194.109 193.856,193.537 193.485,193.133 193.100 C 192.730 192.715,192.130 192.400,191.800 192.400 C 191.470 192.400,191.200 192.253,191.200 192.074 C 191.200 191.894,190.467 191.336,189.572 190.832 C 188.677 190.329,187.345 189.318,186.612 188.585 C 185.879 187.853,185.217 187.313,185.140 187.386 C 185.063 187.459,184.768 187.267,184.484 186.960 C 184.201 186.652,184.073 186.400,184.200 186.400 C 184.327 186.400,184.052 185.995,183.589 185.500 C 180.386 182.078,178.769 174.821,179.733 168.200 C 179.925 166.880,180.122 165.530,180.170 165.200 C 180.536 162.679,187.462 153.540,188.765 153.857 C 188.894 153.889,189.720 153.538,190.600 153.079 C 192.397 152.140,195.788 150.849,197.000 150.641 C 197.440 150.565,198.430 150.393,199.200 150.258 C 203.582 149.492,206.972 149.389,212.600 149.851 C 214.360 149.996,216.205 150.134,216.700 150.157 C 217.195 150.181,217.600 150.314,217.600 150.454 C 217.600 150.594,218.629 150.836,219.886 150.993 C 222.166 151.278,222.798 151.393,224.500 151.832 C 224.995 151.960,225.625 152.080,225.900 152.099 C 226.175 152.118,226.400 152.260,226.400 152.414 C 226.400 152.568,227.525 153.022,228.900 153.423 C 230.275 153.823,231.490 154.178,231.600 154.212 C 232.239 154.406,235.170 155.693,236.135 156.203 C 236.760 156.533,237.435 156.702,237.635 156.578 C 237.836 156.454,238.000 156.531,238.000 156.749 C 238.000 157.136,239.045 157.620,239.755 157.561 C 239.951 157.545,240.221 157.697,240.355 157.900 C 240.490 158.103,241.590 158.812,242.800 159.476 C 244.010 160.141,245.900 161.248,247.000 161.936 C 248.100 162.625,249.618 163.506,250.374 163.894 C 251.130 164.282,252.157 165.005,252.656 165.500 C 253.155 165.995,253.721 166.400,253.914 166.400 C 254.358 166.400,256.963 162.802,256.525 162.794 C 256.346 162.791,256.393 162.656,256.628 162.494 C 257.137 162.144,260.502 157.600,260.252 157.600 C 260.157 157.600,260.607 157.035,261.251 156.345 C 261.896 155.655,262.339 155.006,262.235 154.902 C 262.132 154.799,262.475 154.253,262.997 153.690 C 263.519 153.127,264.273 152.022,264.673 151.233 C 265.073 150.445,265.537 149.739,265.705 149.665 C 266.276 149.412,268.369 146.103,268.118 145.851 C 267.980 145.713,268.077 145.600,268.333 145.600 C 268.590 145.600,268.800 145.319,268.800 144.976 C 268.800 144.633,268.980 144.464,269.200 144.600 C 269.420 144.736,269.600 144.595,269.600 144.286 C 269.600 143.977,270.057 143.201,270.615 142.562 C 273.457 139.308,274.376 137.200,272.953 137.200 C 272.623 137.200,272.464 137.020,272.600 136.800 C 272.736 136.580,272.702 136.400,272.524 136.399 C 272.346 136.399,271.570 135.845,270.800 135.169 C 270.030 134.494,268.950 133.648,268.400 133.290 C 267.850 132.932,266.725 132.120,265.900 131.486 C 265.075 130.852,264.395 130.483,264.388 130.666 C 264.381 130.850,264.208 130.714,264.004 130.364 C 263.559 129.604,256.917 125.467,256.142 125.467 C 255.844 125.467,255.600 125.321,255.600 125.144 C 255.600 124.859,253.528 123.601,253.013 123.573 C 252.905 123.567,251.958 123.174,250.908 122.699 C 249.859 122.224,248.865 121.873,248.700 121.918 C 248.535 121.963,248.400 121.820,248.400 121.600 C 248.400 121.380,248.053 121.200,247.629 121.200 C 247.204 121.200,246.587 120.930,246.257 120.600 C 245.927 120.270,245.320 120.000,244.909 120.000 C 244.497 120.000,243.989 119.835,243.780 119.633 C 243.571 119.432,243.040 119.207,242.600 119.133 C 242.160 119.060,241.710 118.900,241.600 118.777 C 241.261 118.398,233.451 115.996,232.567 115.998 C 232.108 115.999,231.608 115.875,231.455 115.722 C 231.302 115.569,230.890 115.401,230.540 115.350 C 230.190 115.299,229.070 115.069,228.052 114.841 C 227.033 114.612,225.660 114.340,225.000 114.236 C 224.340 114.132,223.350 113.943,222.800 113.815 C 222.250 113.687,220.720 113.487,219.400 113.370 C 218.080 113.254,216.010 113.056,214.800 112.930 C 211.878 112.626,196.548 112.385,196.294 112.639 M33.333 281.152 C 33.956 281.563,34.441 282.017,34.410 282.161 C 34.380 282.304,34.995 283.753,35.777 285.380 C 36.560 287.006,37.200 288.532,37.200 288.769 C 37.200 289.006,37.410 289.200,37.667 289.200 C 37.923 289.200,38.030 289.304,37.903 289.431 C 37.621 289.713,39.029 293.001,40.062 294.472 C 40.530 295.139,40.661 295.639,40.407 295.796 C 40.183 295.934,40.000 295.878,40.000 295.672 C 40.000 295.466,39.446 295.068,38.770 294.787 C 36.601 293.889,35.115 291.585,34.999 288.938 C 34.944 287.670,34.706 286.569,34.472 286.491 C 34.237 286.412,34.135 286.113,34.245 285.826 C 34.356 285.538,34.204 285.055,33.908 284.752 C 33.612 284.448,33.038 283.480,32.632 282.600 C 32.226 281.720,31.817 280.865,31.723 280.700 C 31.424 280.174,32.164 280.382,33.333 281.152 M28.977 284.000 C 30.154 287.666,30.446 289.129,29.836 288.306 C 29.553 287.925,29.189 287.745,29.027 287.906 C 28.866 288.068,28.792 288.020,28.864 287.800 C 29.032 287.284,27.812 285.543,27.464 285.803 C 27.319 285.911,27.293 285.877,27.407 285.726 C 27.521 285.576,27.066 284.887,26.396 284.196 L 25.179 282.940 26.221 281.816 C 27.502 280.433,27.943 280.783,28.977 284.000 " stroke="none" fill="#0c19c4" fill-rule="evenodd"></path><path id="path3" d="" stroke="none" fill="#081cc4" fill-rule="evenodd"></path><path id="path4" d="" stroke="none" fill="#081cc4" fill-rule="evenodd"></path><path id="path5" d="" stroke="none" fill="#081cc4" fill-rule="evenodd"></path><path id="path6" d="" stroke="none" fill="#081cc4" fill-rule="evenodd"></path></g></svg>